<svg width="580" height="400" xmlns="http://www.w3.org/2000/svg">
 <g>
  <title>Layer 1</title>
  <path d="m-73.5,105.453125c1,-1 1,-3 1,-8c0,-5 -1.406013,-8.504326 1,-13c2.669235,-4.987503 9.310005,-8.337494 12,-10c2.406006,-1.486992 4.096603,-1.533737 10,-3c6.138062,-1.524548 11.925797,-3.497555 17,-4c4.975666,-0.492687 9,-2 11,-2c4,0 18,0 33,0c14,0 21.958471,0.499233 31,1c2.995409,0.165901 5,0 6,0c2,0 2.805651,0.44841 7,2c3.867001,1.430496 11.08411,3.470726 19,5c19.290199,3.726685 32,9 44,13c6,2 9.012909,2.839821 10,3c3.121445,0.506538 3,2 7,6c3,3 5.692551,5.186005 7,7c2.480713,3.441811 5.146812,5.863251 7,8c3.276016,3.777267 4.190277,8.881523 6,12c2.24469,3.867996 4.051315,9.153954 5,12c1.581146,4.743423 4,6 6,10c2,4 3.418854,8.256577 5,13c1.581146,4.743423 3.568115,8.748123 6,15c2.639206,6.784882 3.633453,11.022476 4,14c0.503769,4.092209 1.458801,9.693436 2,11c2.296097,5.543274 0,11 0,13c0,3 0.39415,5.01947 0,9c-0.502441,5.074203 -1.847961,8.079697 -4,12c-2.805908,5.11145 -4.540497,8.053497 -5,10c-1.027481,4.352509 -3.346191,5.70546 -5,8c-1.307449,1.813995 -1.161316,4.244034 -3,9c-2.102615,5.43866 -3.234634,7.152237 -4,9c-1.082397,2.613129 -2.144287,2.934143 -3,5c-1.210144,2.92157 -3,5 -4,7c-1,2 -3.346191,3.705475 -5,6c-1.307449,1.813995 -2.85273,3.173096 -4,4c-1.813995,1.307465 -2,2 -3,2c-1,0 -4,2 -5,2c-2,0 -2.693436,0.458801 -4,1c-0.923882,0.38269 -2,0 -4,0c-3,0 -4.133759,1.148773 -9,0c-2.176254,-0.513733 -4.418861,-1.418854 -6,-3c-1.581139,-1.581146 -3,-7 -3,-8c0,-5 0,-7 0,-9c0,-3 0,-7 0,-10c0,-4 0,-5 0,-8c0,-3 0,-6 1,-9c1,-3 2,-4 3,-6c1,-2 1.789848,-3.07843 3,-6c0.855705,-2.065857 2.224205,-3.902832 3,-6c1.430496,-3.867004 2,-5 3,-7c1,-2 2,-5 2,-7c0,-2 0,-4 0,-8c0,-2 0,-5 0,-8c0,-4 0,-6 0,-9c0,-3 0,-6 -1,-8c-1,-2 -2,-4 -4,-6c-2,-2 -4.076118,-2.61731 -5,-3c-1.306564,-0.541199 -1.693436,-1.458801 -3,-2c-1.847755,-0.765366 -4,-2 -6,-2c-1,0 -1.693436,-0.458801 -3,-1c-1.847755,-0.765366 -3,-1 -5,-1c-1,0 -3,0 -6,0c-2,0 -3.91761,0.386871 -5,3c-0.382683,0.923874 -2.458801,1.693436 -3,3c-0.765366,1.847763 -1.458805,4.693436 -2,6c-0.382683,0.923874 -1.458805,1.693436 -2,3c-1.148048,2.771637 -0.770248,5.026749 -1,6c-0.513744,2.176254 -2,4 -2,5c0,2 0.229752,4.026749 0,5c-0.513744,2.176254 -1,5 -1,6c0,3 0,5 0,9c0,3 0,7 0,9c0,1 0,3 0,4c0,3 0,4 0,6c0,2 0,3 0,4c0,3 0,5 0,7c0,2 0,3 0,5c0,1 0,3 0,5c0,1 0,2 0,4c0,2 0,6 0,7c0,2 0,3 0,5c0,2 0,4 0,5c0,2 0,3 0,4c0,1 -1,2 -1,3c0,1 -0.82375,1.486267 -3,2c-1.946499,0.459503 -3,0 -5,0c-1,0 -1.386875,0.917603 -4,2c-1.847759,0.765381 -3,0 -4,0c-1,0 -3.152241,0.765381 -5,0c-1.306564,-0.541199 -2.292892,-2.292908 -3,-3c-0.707108,-0.707092 0,-2 0,-3c0,-1 0,-3 0,-4c0,-1 0,-2 0,-3c0,-1 0,-2 0,-3c0,-1 0,-2 0,-3c0,-2 0,-3 0,-4c0,-1 0,-3 0,-4c0,-2 0,-3 0,-5c0,-1 0,-3 0,-4c0,-1 0,-3 0,-5c0,-1 0.229753,-4.026749 0,-5c-0.513742,-2.176254 -2.292892,-2.292892 -3,-3c-0.707108,-0.707108 -1,-1 -2,-1c-1,0 -1,-1 -2,-1c-1,0 -2,0 -3,0c-1,0 -1.617317,0.076126 -2,1c-0.541197,1.306564 -2,1 -3,1c-1,0 -1.693437,0.458801 -3,1c-0.92388,0.38269 -2,0 -3,0c-1,0 -0.693437,1.458801 -2,2c-0.92388,0.38269 -1.693437,0.458801 -3,1c-1.847759,0.765366 -1.693437,1.458801 -3,2c-0.92388,0.38269 -2.186007,-0.307449 -4,1c-1.14727,0.826904 -1.292893,2.292892 -2,3c-0.707107,0.707108 -4.292893,1.292892 -5,2c-0.707107,0.707108 -1.097887,1.824432 -3,3c-0.850651,0.525726 -3.07612,1.61731 -4,2c-2.613127,1.082397 -2.152241,2.234634 -4,3c-1.306562,0.541199 -2,1 -3,1c-2,0 -2.85273,-0.173096 -4,-1c-1.813993,-1.307449 -4.418861,-1.418854 -6,-3c-1.581139,-1.581146 -3.85273,-3.173096 -5,-4c-1.813992,-1.307449 -2.710217,-1.042908 -3,-2c-1.04483,-3.450851 -1.968552,-4.412079 -4,-8c-0.696781,-1.230652 -2,-4 -2,-7c0,-1 0,-2 0,-3c0,-2 0,-6 0,-7c0,-2 0,-3 0,-5c0,-2 2.186008,-5.692551 4,-7c2.29454,-1.653809 4,-5 5,-6c4,-4 5.812656,-6.206802 8,-8c2.788324,-2.285873 4.85273,-4.173096 6,-5c1.813993,-1.307449 1.705462,-2.346191 4,-4c1.813993,-1.307449 3.617317,-2.076126 4,-3c2.164784,-5.226257 6,-7 7,-8c1,-1 0.692548,-2.186005 2,-4c0.826905,-1.147263 2.346189,-2.70546 4,-5c1.307452,-1.813995 3.486257,-4.823746 4,-7c0.229753,-0.973251 -0.307452,-2.186005 1,-4c1.653811,-2.29454 3.458804,-4.693436 4,-6c0.765367,-1.847763 -0.382683,-3.076126 0,-4c0.541196,-1.306564 3.917608,-4.386871 5,-7c0.765367,-1.847755 1.519453,-3.038734 2,-6c0.50654,-3.121445 1.474269,-4.149345 2,-5c1.17557,-1.902115 2,-2 2,-3c0,-1 -0.346189,-2.70546 -2,-5c-1.307452,-1.813995 -0.693437,-3.458801 -2,-4c-1.847759,-0.765366 -5,-2 -6,-2c-1,0 -2,-1 -3,-1c-1,0 -2.149349,0.525734 -3,0c-1.902113,-1.175568 -2,-2 -3,-2c-1,0 -3,-2 -4,-2c-3,0 -4,-1 -5,-1c-1,0 -2,0 -3,0c-1,0 -2,0 -3,0c-1,0 -2,-1 -3,-1c-1,0 -2.82375,-1.486259 -5,-2c-0.973249,-0.229752 -2,-1 -4,-1c-2,0 -3.878555,-1.493462 -7,-2c-0.987087,-0.160179 -1.82375,-1.486259 -4,-2c-1.946499,-0.459503 -4,-2 -7,-3c-3,-1 -6,-2 -8,-4c-1,-1 -2,-1 -3,-2c-1,-1 -2,-1 -2,-3c0,-2 -1,-3 -1,-5c0,-1 -0.902115,-3.824432 1,-5c0.850651,-0.525734 0.85273,-1.173096 2,-2c1.813992,-1.307449 2.076122,-1.617317 3,-2c1.306564,-0.541195 2,-2 3,-3c1,-1 2.186008,-0.692547 4,-2c1.14727,-0.826904 2.026752,-1.770248 3,-2c2.17625,-0.513744 3,-1 4,-1c1,0 1.386875,-0.917606 4,-2c1.847759,-0.765366 3,0 5,0c1,0 3,0 4,0c2,0 3,0 4,0c1,0 2,0 3,0c1,0 2,0 3,0c1,0 2,0 3,0c1,0 2,0 3,0c1,0 2,0 3,0c1,0 2,0 3,0c1,0 2,0 3,0l1,0l1,0l1,0" id="svg_1" stroke-width="1.5" stroke="#000" fill="red"/>
 </g>
</svg>