<svg width="580" height="400" xmlns="http://www.w3.org/2000/svg">
 <g>
  <title>Layer 1</title>
  <path stroke="#000" id="svg_4" d="m184.704496,41.365025c0,0 0,-4.698934 2.58255,-7.740783c1.4799,-1.718485 6.206101,-2.591895 6.206101,-2.591895c0,0 5.075326,-1.263411 11.225702,-0.995042c4.764901,0.207024 10.926002,1.953677 10.926002,1.953677c0,0 6.807751,0.115508 9.144152,2.476554c2.852476,2.903072 -1.65105,6.289275 -1.65105,6.289275c0,0 0.59745,1.975944 2.895226,3.635924c1.893075,1.364668 5.576476,2.493811 5.576476,2.493811c0,0 0.6981,0.342962 1.2207,0.99532c0.462525,0.595299 0.7323,1.527215 0.7323,1.527215c0,0 2.270025,1.122908 2.4264,2.514463c0.1734,1.487692 -1.77105,3.255164 -1.77105,3.255164c0,0 -0.8865,2.749822 -2.496975,4.735062c-1.0386,1.28885 -3.051676,2.113273 -3.051676,2.113273c0,0 -4.612726,2.620285 -10.247027,3.225382c-4.261576,0.456188 -9.951602,-1.061563 -9.951602,-1.061563c0,0 2.923201,6.18657 2.593425,12.488648c0.4671,9.891687 -10.689152,18.241686 -15.461628,29.382088c-1.6854,3.356366 -0.646725,7.257541 -0.646725,7.257541c0,0 -0.483975,9.790931 -2.265675,18.50922c-1.452,7.164355 -4.240201,13.567413 -4.240201,13.567413c0,0 1.706325,3.870002 1.29135,6.365204c1.446225,0.636047 7.633726,3.41938 6.846376,5.644822c-1.1814,0.140391 -3.368626,-0.720271 -3.368626,-0.720271c0,0 -1.00215,0.789743 -2.240025,0.909872c-0.91005,0.094578 -1.76025,0.229124 -2.15865,-0.461421c-2.13285,0.342628 -5.914801,-0.922397 -5.914801,-0.922397c0,0 -2.910226,-1.56685 -4.282951,-3.234511c-0.7431,-0.894118 -1.915425,-0.065798 -0.39405,-2.410422c1.52145,-2.344624 -0.1563,-2.808049 -0.1563,-2.808049c0,0 -3.400726,1.203402 -5.666401,1.130868c-1.113525,-0.041082 -1.953,-1.389774 -1.953,-1.389774c0,0 0.408975,-2.814729 0.139125,-5.281653c-0.39825,-3.509505 -1.529025,-7.03159 -1.529025,-7.03159c0,0 -2.723926,-2.164041 -4.848301,-8.366476c-1.4691,-4.281657 -1.6254,-10.285195 -2.65335,-14.705963c-1.02795,-4.496586 -3.092551,-7.45115 -2.923126,-7.38229c-4.950676,4.662807 -11.157227,5.769627 -11.157227,5.769627c0,0 1.01295,7.085475 0.16065,12.86284c-0.8181,5.570618 -3.497101,9.838303 -3.497101,9.838303c0,0 -2.832001,5.138701 -3.681226,8.617589c-0.604425,2.476276 0.120675,3.083432 0.67245,3.698938c3.364276,2.911756 18.364278,-2.376577 21.926779,1.430912c0.366225,0.151692 1.141425,0.86545 2.038725,1.269757c0.95295,0.429747 2.841751,2.552595 2.272125,2.792629c-0.47325,0.208472 -1.490475,-0.028446 -1.490475,-0.028446c0,0 0.27405,1.298202 -0.3555,1.772092c-0.67245,0.483242 -2.240025,0.154642 -2.240025,0.154642c0,0 -1.0215,-0.600142 -2.938126,-0.770594c-1.824525,-0.161155 -4.563526,0.10727 -4.563526,0.10727c0,0 -7.441951,-2.00734 -14.009703,1.314179c-3.463501,1.340565 -6.109651,1.348859 -9.617477,1.670946c-1.953,0.180082 -2.837476,-0.944385 -2.837476,-0.944385c0,0 -0.644625,0.634934 -1.9359,1.184531c-1.4712,0.612779 -3.040951,1.516137 -3.040951,1.516137c0,0 0.73665,0.67301 1.920975,1.149795c0.747375,0.290803 2.158575,0.474002 2.158575,0.474002c0,0 5.451226,0.626918 10.602602,-0.590623c0.854475,-0.037909 7.099051,2.447941 7.910701,2.978612c0.6189,0.398072 -0.6033,1.626301 -1.6404,1.945884c-5.296651,2.323582 -9.046652,-1.109214 -17.530278,1.273152c-7.828876,0.702513 -11.065127,-0.088566 -13.675653,-1.490976c-1.732425,-0.928798 -1.8738,-2.912591 -1.8738,-2.912591c0,0 -2.5077,-2.486129 -2.706826,-4.79841c-0.085725,-1.020203 3.310726,-4.649836 4.730551,-6.500864c1.16925,-1.509903 2.541975,-3.357813 2.541975,-3.357813c0,0 1.096425,-1.718374 1.839525,-3.910639c0.554625,-1.592289 0.65745,-3.471596 1.340625,-4.997363c0.818025,-1.870177 2.26995,-3.348294 2.26995,-3.348294c0,0 -3.927526,-2.309164 -6.936301,-5.1996c-3.724051,-3.590054 -6.664351,-7.895537 -6.664351,-7.895537c0,0 -9.692402,-5.313216 -16.930653,-11.705084c-4.580626,-4.03561 -7.987801,-10.275843 -7.987801,-10.275843c0,0 -1.697475,1.310226 -4.105276,2.967812c-17.108328,11.777841 -18.477678,35.733599 -23.858329,61.692299c-3.500026,16.885535 -11.853227,27.663992 -17.273403,31.160805c-4.934026,3.18725 -11.125052,3.351578 -11.125052,3.351578c0,0 -3.869701,0.047317 -4.310776,-0.543362c-0.42405,-0.546591 2.599725,-1.743814 2.599725,-1.743814c0,0 5.549176,-2.108208 9.030677,-5.445814c14.578803,-13.976062 16.047903,-54.501168 22.578829,-71.683852c3.300451,-8.683498 7.749976,-31.915534 38.798632,-44.595341c22.562104,-9.214057 71.326363,-15.431856 83.541915,-26.926075c2.454225,-2.309331 5.113951,-4.695706 5.113951,-4.695706z" fill-opacity="null" stroke-opacity="null" stroke-width="1.5" fill="none"/>
  <path transform="translate(-200, 0)" id="svg_5" d="m284.171464,212.874426c1.26758,-0.21503 10.474268,8.556058 10.647914,10.323498c0.253516,2.58084 6.084546,2.58084 7.605641,2.58084c1.521177,0 12.422607,5.591878 19.774733,11.613953c7.352207,6.022006 28.901551,0.430128 30.422647,0c1.521177,-0.430198 70.986257,-11.828982 89.746844,-3.871295c9.010186,3.821816 26.77013,-9.680686 29.091708,-37.745242c-0.950705,-18.711245 -20.785624,-19.413473 -24.908573,-13.710838c-3.042273,2.527083 -8.239472,1.77434 -6.971811,-2.849696c1.152656,-3.09647 8.873221,-12.635482 23.13388,-8.441574c12.089629,3.555444 19.082261,12.107017 21.676143,24.679494c1.711253,27.099131 -22.246615,47.10083 -22.246615,47.10083c0,0 1.90141,7.097431 4.56345,11.613953c2.661958,4.516522 3.422506,20.0017 3.042191,21.937313c-0.380233,1.935682 11.408543,12.581793 15.211364,12.904338c3.295789,1.290455 12.549406,25.163518 12.929639,30.325198c3.422587,1.451727 -0.380233,8.71043 -4.563369,9.678271c-4.183135,0.967841 -5.323998,-5.806976 -5.323998,-9.033044c0,-3.226067 -4.183135,-18.388701 -15.971912,-20.0017c-11.788777,-1.613068 -22.056376,-7.097431 -22.056376,-7.097431c0,0 -0.760629,3.226136 -2.281725,4.516591c0,0 3.802821,5.484294 3.802821,13.549496c-0.380233,3.548681 -6.464779,14.517406 -10.647914,15.485247c0,0 -6.845093,9.033044 -9.887366,9.033044c-3.042273,0 -8.366271,3.226067 -16.73246,-0.645227c0,0 1.521096,-8.065203 9.126818,-5.806976c0,0 17.873322,-11.613884 9.126737,-16.775633c0,0 -5.323916,-6.452135 -8.366189,-9.033044c-3.042273,-2.58084 -6.084546,-6.774748 -6.845093,-11.613884c0,0 -25.478964,-1.290455 -31.943824,-2.580909c-6.464779,-1.290385 -18.253555,1.935682 -18.253555,3.871295c0,1.935682 1.90141,20.324382 5.323916,23.873063c0,0 1.140862,4.516522 0,5.806976c-1.140862,1.290385 4.183135,11.936497 -6.084546,10.968656c-9.697209,1.451727 -14.450735,-5.000408 -3.042191,-7.097362c0.570391,-6.936089 -14.450816,-36.293446 -24.338182,-32.26088c-12.929639,1.613068 -8.556347,-7.903861 -21.295828,7.097431c-13.309954,13.226883 -36.126959,22.58254 -37.26774,28.389516c0,0 -6.845093,-1.290455 -8.366271,3.226067c0,0 -17.873322,1.935682 -16.73246,-0.645227c1.140862,-2.58084 2.091568,-7.903861 9.126818,-5.806907c0,0 15.971912,-5.32309 31.183195,-32.906107c0,0 -1.90141,-7.097362 0.760548,-12.904338c2.66204,-5.806907 -1.521096,-29.679971 -20.53528,-28.389516c0,0 -7.098609,2.150712 -11.408462,-7.742589c0,0 -1.774693,-1.935682 0,-3.871295c1.774612,-1.935682 6.084546,-4.94665 6.845093,-7.097362c0.760548,-2.150781 2.535241,-5.376848 12.16901,-8.387885c4.56345,-4.032567 -0.506951,-12.044012 0.760629,-12.259111z" stroke-width="1.5" fill="#0f0f00"/>
 </g>
</svg>